<mxfile host="Electron" modified="2023-05-25T00:15:27.970Z" agent="Mozilla/5.0 (Windows NT 10.0; Win64; x64) AppleWebKit/537.36 (KHTML, like Gecko) draw.io/21.2.8 Chrome/112.0.5615.165 Electron/24.2.0 Safari/537.36" etag="lPHyjNqtI6QR8uRLbkiZ" version="21.2.8" type="device">
  <diagram name="Page-1" id="T0IpLE6WFn4X1Rez3FWX">
    <mxGraphModel dx="538" dy="348" grid="1" gridSize="10" guides="1" tooltips="1" connect="1" arrows="1" fold="1" page="1" pageScale="1" pageWidth="850" pageHeight="1100" math="0" shadow="0">
      <root>
        <mxCell id="0" />
        <mxCell id="1" parent="0" />
        <mxCell id="zVq6vsoDXWUhWiqunxXw-2" value="" style="rounded=0;whiteSpace=wrap;html=1;" parent="1" vertex="1">
          <mxGeometry x="40" y="40" width="480" height="320" as="geometry" />
        </mxCell>
        <mxCell id="zVq6vsoDXWUhWiqunxXw-3" value="" style="rounded=0;whiteSpace=wrap;html=1;" parent="1" vertex="1">
          <mxGeometry x="40" y="40" width="60" height="320" as="geometry" />
        </mxCell>
        <mxCell id="zVq6vsoDXWUhWiqunxXw-4" value="Create Budget" style="rounded=0;whiteSpace=wrap;html=1;fillColor=none;strokeColor=none;" parent="1" vertex="1">
          <mxGeometry x="40" y="130" width="60" height="40" as="geometry" />
        </mxCell>
        <mxCell id="zVq6vsoDXWUhWiqunxXw-5" value="Allot Money" style="rounded=0;whiteSpace=wrap;html=1;fillColor=none;strokeColor=none;" parent="1" vertex="1">
          <mxGeometry x="40" y="200" width="60" height="40" as="geometry" />
        </mxCell>
        <mxCell id="zVq6vsoDXWUhWiqunxXw-7" value="&lt;font style=&quot;font-size: 11px;&quot;&gt;Record Transaction&lt;/font&gt;" style="rounded=0;whiteSpace=wrap;html=1;fillColor=none;strokeColor=none;" parent="1" vertex="1">
          <mxGeometry x="40" y="270" width="60" height="40" as="geometry" />
        </mxCell>
        <mxCell id="zVq6vsoDXWUhWiqunxXw-8" value="Logo?" style="rounded=0;whiteSpace=wrap;html=1;" parent="1" vertex="1">
          <mxGeometry x="40" y="40" width="60" height="60" as="geometry" />
        </mxCell>
        <mxCell id="zVq6vsoDXWUhWiqunxXw-9" value="Create New Budget" style="rounded=1;whiteSpace=wrap;html=1;" parent="1" vertex="1">
          <mxGeometry x="110" y="50" width="390" height="70" as="geometry" />
        </mxCell>
        <mxCell id="U-xyWe_VY9quYJg3zvfi-1" value="" style="rounded=1;whiteSpace=wrap;html=1;arcSize=6;" vertex="1" parent="1">
          <mxGeometry x="110" y="130" width="190" height="220" as="geometry" />
        </mxCell>
        <mxCell id="zVq6vsoDXWUhWiqunxXw-10" value="Existing&amp;nbsp; Budgets" style="text;html=1;strokeColor=none;fillColor=none;align=center;verticalAlign=middle;whiteSpace=wrap;rounded=0;" parent="1" vertex="1">
          <mxGeometry x="113" y="125" width="120" height="30" as="geometry" />
        </mxCell>
        <mxCell id="zVq6vsoDXWUhWiqunxXw-11" value="Budget - Description" style="rounded=1;whiteSpace=wrap;html=1;" parent="1" vertex="1">
          <mxGeometry x="120" y="150" width="170" height="30" as="geometry" />
        </mxCell>
        <mxCell id="zVq6vsoDXWUhWiqunxXw-24" value="Budget - Description" style="rounded=1;whiteSpace=wrap;html=1;" parent="1" vertex="1">
          <mxGeometry x="120" y="190" width="170" height="30" as="geometry" />
        </mxCell>
        <mxCell id="zVq6vsoDXWUhWiqunxXw-25" value="Budget - Description" style="rounded=1;whiteSpace=wrap;html=1;" parent="1" vertex="1">
          <mxGeometry x="120" y="230" width="170" height="30" as="geometry" />
        </mxCell>
        <mxCell id="zVq6vsoDXWUhWiqunxXw-26" value="Budget - Description" style="rounded=1;whiteSpace=wrap;html=1;" parent="1" vertex="1">
          <mxGeometry x="120" y="270" width="170" height="30" as="geometry" />
        </mxCell>
        <mxCell id="zVq6vsoDXWUhWiqunxXw-27" value="Budget - Description" style="rounded=1;whiteSpace=wrap;html=1;" parent="1" vertex="1">
          <mxGeometry x="120" y="310" width="170" height="30" as="geometry" />
        </mxCell>
        <mxCell id="zVq6vsoDXWUhWiqunxXw-33" value="" style="rounded=0;whiteSpace=wrap;html=1;" parent="1" vertex="1">
          <mxGeometry x="40" y="400" width="480" height="320" as="geometry" />
        </mxCell>
        <mxCell id="zVq6vsoDXWUhWiqunxXw-34" value="" style="rounded=0;whiteSpace=wrap;html=1;" parent="1" vertex="1">
          <mxGeometry x="40" y="400" width="60" height="320" as="geometry" />
        </mxCell>
        <mxCell id="zVq6vsoDXWUhWiqunxXw-35" value="Create Budget" style="rounded=0;whiteSpace=wrap;html=1;strokeColor=none;gradientColor=none;fillColor=none;" parent="1" vertex="1">
          <mxGeometry x="40" y="490" width="60" height="40" as="geometry" />
        </mxCell>
        <mxCell id="zVq6vsoDXWUhWiqunxXw-36" value="Allot Money" style="rounded=0;whiteSpace=wrap;html=1;strokeColor=none;gradientColor=none;fillColor=none;" parent="1" vertex="1">
          <mxGeometry x="40" y="560" width="60" height="40" as="geometry" />
        </mxCell>
        <mxCell id="zVq6vsoDXWUhWiqunxXw-37" value="&lt;font style=&quot;font-size: 11px;&quot;&gt;Record Transaction&lt;/font&gt;" style="rounded=0;whiteSpace=wrap;html=1;strokeColor=none;gradientColor=none;fillColor=none;" parent="1" vertex="1">
          <mxGeometry x="40" y="630" width="60" height="40" as="geometry" />
        </mxCell>
        <mxCell id="zVq6vsoDXWUhWiqunxXw-38" value="Logo" style="rounded=0;whiteSpace=wrap;html=1;" parent="1" vertex="1">
          <mxGeometry x="40" y="400" width="60" height="60" as="geometry" />
        </mxCell>
        <mxCell id="U-xyWe_VY9quYJg3zvfi-3" value="" style="rounded=1;whiteSpace=wrap;html=1;arcSize=6;" vertex="1" parent="1">
          <mxGeometry x="310" y="130" width="190" height="220" as="geometry" />
        </mxCell>
        <mxCell id="U-xyWe_VY9quYJg3zvfi-4" value="Selected Budget" style="text;html=1;strokeColor=none;fillColor=none;align=center;verticalAlign=middle;whiteSpace=wrap;rounded=0;" vertex="1" parent="1">
          <mxGeometry x="310" y="125" width="120" height="30" as="geometry" />
        </mxCell>
        <mxCell id="U-xyWe_VY9quYJg3zvfi-5" value="Budget Breakdown" style="rounded=1;whiteSpace=wrap;html=1;" vertex="1" parent="1">
          <mxGeometry x="320" y="155" width="170" height="185" as="geometry" />
        </mxCell>
        <mxCell id="U-xyWe_VY9quYJg3zvfi-7" value="" style="rounded=1;whiteSpace=wrap;html=1;arcSize=6;" vertex="1" parent="1">
          <mxGeometry x="110" y="410" width="210" height="300" as="geometry" />
        </mxCell>
        <mxCell id="U-xyWe_VY9quYJg3zvfi-8" value="Categories" style="text;html=1;strokeColor=none;fillColor=none;align=center;verticalAlign=middle;whiteSpace=wrap;rounded=0;" vertex="1" parent="1">
          <mxGeometry x="120" y="410" width="60" height="30" as="geometry" />
        </mxCell>
        <mxCell id="U-xyWe_VY9quYJg3zvfi-9" value="Category - Operator - Operand" style="rounded=0;whiteSpace=wrap;html=1;" vertex="1" parent="1">
          <mxGeometry x="116.5" y="440" width="197" height="40" as="geometry" />
        </mxCell>
        <mxCell id="U-xyWe_VY9quYJg3zvfi-10" value="Category - Operator - Operand" style="rounded=0;whiteSpace=wrap;html=1;" vertex="1" parent="1">
          <mxGeometry x="116.5" y="490" width="197" height="40" as="geometry" />
        </mxCell>
        <mxCell id="U-xyWe_VY9quYJg3zvfi-11" value="Category - Operator - Operand" style="rounded=0;whiteSpace=wrap;html=1;" vertex="1" parent="1">
          <mxGeometry x="116.5" y="540" width="197" height="40" as="geometry" />
        </mxCell>
        <mxCell id="U-xyWe_VY9quYJg3zvfi-12" value="Category - Operator - Operand" style="rounded=0;whiteSpace=wrap;html=1;" vertex="1" parent="1">
          <mxGeometry x="116.5" y="590" width="197" height="40" as="geometry" />
        </mxCell>
        <mxCell id="U-xyWe_VY9quYJg3zvfi-13" value="Category - Operator - Operand" style="rounded=0;whiteSpace=wrap;html=1;" vertex="1" parent="1">
          <mxGeometry x="116.5" y="640" width="197" height="40" as="geometry" />
        </mxCell>
        <mxCell id="U-xyWe_VY9quYJg3zvfi-14" value="" style="rounded=1;whiteSpace=wrap;html=1;arcSize=6;" vertex="1" parent="1">
          <mxGeometry x="330" y="410" width="180" height="300" as="geometry" />
        </mxCell>
        <mxCell id="U-xyWe_VY9quYJg3zvfi-15" value="Resulting Envelopes&lt;br&gt;" style="text;html=1;strokeColor=none;fillColor=none;align=center;verticalAlign=middle;whiteSpace=wrap;rounded=0;" vertex="1" parent="1">
          <mxGeometry x="330" y="410" width="120" height="30" as="geometry" />
        </mxCell>
        <mxCell id="U-xyWe_VY9quYJg3zvfi-16" value="Category" style="rounded=0;whiteSpace=wrap;html=1;" vertex="1" parent="1">
          <mxGeometry x="342.5" y="440" width="155" height="40" as="geometry" />
        </mxCell>
        <mxCell id="U-xyWe_VY9quYJg3zvfi-17" value="Category" style="rounded=0;whiteSpace=wrap;html=1;" vertex="1" parent="1">
          <mxGeometry x="342.5" y="490" width="155" height="40" as="geometry" />
        </mxCell>
        <mxCell id="U-xyWe_VY9quYJg3zvfi-18" value="Category" style="rounded=0;whiteSpace=wrap;html=1;" vertex="1" parent="1">
          <mxGeometry x="342.5" y="540" width="155" height="40" as="geometry" />
        </mxCell>
        <mxCell id="U-xyWe_VY9quYJg3zvfi-19" value="Category" style="rounded=0;whiteSpace=wrap;html=1;" vertex="1" parent="1">
          <mxGeometry x="342.5" y="590" width="155" height="40" as="geometry" />
        </mxCell>
        <mxCell id="U-xyWe_VY9quYJg3zvfi-20" value="Category" style="rounded=0;whiteSpace=wrap;html=1;" vertex="1" parent="1">
          <mxGeometry x="342.5" y="640" width="155" height="40" as="geometry" />
        </mxCell>
        <mxCell id="U-xyWe_VY9quYJg3zvfi-21" value="" style="rounded=0;whiteSpace=wrap;html=1;" vertex="1" parent="1">
          <mxGeometry x="40" y="760" width="480" height="320" as="geometry" />
        </mxCell>
        <mxCell id="U-xyWe_VY9quYJg3zvfi-22" value="" style="rounded=0;whiteSpace=wrap;html=1;" vertex="1" parent="1">
          <mxGeometry x="40" y="760" width="60" height="320" as="geometry" />
        </mxCell>
        <mxCell id="U-xyWe_VY9quYJg3zvfi-23" value="Create Budget" style="rounded=0;whiteSpace=wrap;html=1;strokeColor=none;gradientColor=none;fillColor=none;" vertex="1" parent="1">
          <mxGeometry x="40" y="850" width="60" height="40" as="geometry" />
        </mxCell>
        <mxCell id="U-xyWe_VY9quYJg3zvfi-24" value="Allot Money" style="rounded=0;whiteSpace=wrap;html=1;strokeColor=none;gradientColor=none;fillColor=none;" vertex="1" parent="1">
          <mxGeometry x="40" y="920" width="60" height="40" as="geometry" />
        </mxCell>
        <mxCell id="U-xyWe_VY9quYJg3zvfi-25" value="&lt;font style=&quot;font-size: 11px;&quot;&gt;Record Transaction&lt;/font&gt;" style="rounded=0;whiteSpace=wrap;html=1;strokeColor=none;gradientColor=none;fillColor=none;" vertex="1" parent="1">
          <mxGeometry x="40" y="990" width="60" height="40" as="geometry" />
        </mxCell>
        <mxCell id="U-xyWe_VY9quYJg3zvfi-26" value="Logo" style="rounded=0;whiteSpace=wrap;html=1;" vertex="1" parent="1">
          <mxGeometry x="40" y="760" width="60" height="60" as="geometry" />
        </mxCell>
        <mxCell id="U-xyWe_VY9quYJg3zvfi-41" value="" style="rounded=1;whiteSpace=wrap;html=1;arcSize=7;" vertex="1" parent="1">
          <mxGeometry x="110" y="770" width="390" height="110" as="geometry" />
        </mxCell>
        <mxCell id="U-xyWe_VY9quYJg3zvfi-43" value="" style="verticalLabelPosition=bottom;verticalAlign=top;html=1;shadow=0;dashed=0;strokeWidth=1;shape=mxgraph.android.quickscroll3;dy=0.5;fillColor=#33b5e5;strokeColor=#66D5F5;" vertex="1" parent="1">
          <mxGeometry x="510" y="770" width="6" height="300" as="geometry" />
        </mxCell>
        <mxCell id="U-xyWe_VY9quYJg3zvfi-44" value="Category" style="text;html=1;strokeColor=none;fillColor=none;align=center;verticalAlign=middle;whiteSpace=wrap;rounded=0;" vertex="1" parent="1">
          <mxGeometry x="109.5" y="768" width="60" height="30" as="geometry" />
        </mxCell>
        <mxCell id="U-xyWe_VY9quYJg3zvfi-45" value="Remaining" style="text;html=1;strokeColor=none;fillColor=none;align=center;verticalAlign=middle;whiteSpace=wrap;rounded=0;" vertex="1" parent="1">
          <mxGeometry x="435" y="767" width="60" height="30" as="geometry" />
        </mxCell>
        <mxCell id="U-xyWe_VY9quYJg3zvfi-46" value="" style="endArrow=none;html=1;rounded=0;" edge="1" parent="1">
          <mxGeometry width="50" height="50" relative="1" as="geometry">
            <mxPoint x="110" y="794" as="sourcePoint" />
            <mxPoint x="500" y="794" as="targetPoint" />
          </mxGeometry>
        </mxCell>
        <mxCell id="U-xyWe_VY9quYJg3zvfi-47" value="Date(Optional) - Transaction Name - CF direction - Amount" style="rounded=1;whiteSpace=wrap;html=1;" vertex="1" parent="1">
          <mxGeometry x="117" y="800" width="373" height="30" as="geometry" />
        </mxCell>
        <mxCell id="U-xyWe_VY9quYJg3zvfi-48" value="Date(Optional) - Transaction Name - CF direction - Amount" style="rounded=1;whiteSpace=wrap;html=1;" vertex="1" parent="1">
          <mxGeometry x="118.5" y="840" width="373" height="30" as="geometry" />
        </mxCell>
        <mxCell id="U-xyWe_VY9quYJg3zvfi-49" value="" style="rounded=1;whiteSpace=wrap;html=1;arcSize=7;" vertex="1" parent="1">
          <mxGeometry x="110.25" y="893" width="390" height="110" as="geometry" />
        </mxCell>
        <mxCell id="U-xyWe_VY9quYJg3zvfi-50" value="Category" style="text;html=1;strokeColor=none;fillColor=none;align=center;verticalAlign=middle;whiteSpace=wrap;rounded=0;" vertex="1" parent="1">
          <mxGeometry x="109.75" y="891" width="60" height="30" as="geometry" />
        </mxCell>
        <mxCell id="U-xyWe_VY9quYJg3zvfi-51" value="Remaining" style="text;html=1;strokeColor=none;fillColor=none;align=center;verticalAlign=middle;whiteSpace=wrap;rounded=0;" vertex="1" parent="1">
          <mxGeometry x="435.25" y="890" width="60" height="30" as="geometry" />
        </mxCell>
        <mxCell id="U-xyWe_VY9quYJg3zvfi-52" value="" style="endArrow=none;html=1;rounded=0;" edge="1" parent="1">
          <mxGeometry width="50" height="50" relative="1" as="geometry">
            <mxPoint x="110.25" y="917" as="sourcePoint" />
            <mxPoint x="500.25" y="917" as="targetPoint" />
          </mxGeometry>
        </mxCell>
        <mxCell id="U-xyWe_VY9quYJg3zvfi-53" value="Date(Optional) - Transaction Name - CF direction - Amount" style="rounded=1;whiteSpace=wrap;html=1;" vertex="1" parent="1">
          <mxGeometry x="117.25" y="923" width="373" height="30" as="geometry" />
        </mxCell>
        <mxCell id="U-xyWe_VY9quYJg3zvfi-54" value="Date(Optional) - Transaction Name - CF direction - Amount" style="rounded=1;whiteSpace=wrap;html=1;" vertex="1" parent="1">
          <mxGeometry x="118.75" y="963" width="373" height="30" as="geometry" />
        </mxCell>
      </root>
    </mxGraphModel>
  </diagram>
</mxfile>
